<?xml version="1.0" encoding="UTF-8" standalone="no"?>
<!-- Generator: Adobe Illustrator 22.0.1, SVG Export Plug-In . SVG Version: 6.00 Build 0)  -->

<svg
   xmlns:dc="http://purl.org/dc/elements/1.1/"
   xmlns:cc="http://creativecommons.org/ns#"
   xmlns:rdf="http://www.w3.org/1999/02/22-rdf-syntax-ns#"
   xmlns:svg="http://www.w3.org/2000/svg"
   xmlns="http://www.w3.org/2000/svg"
   xmlns:sodipodi="http://sodipodi.sourceforge.net/DTD/sodipodi-0.dtd"
   xmlns:inkscape="http://www.inkscape.org/namespaces/inkscape"
   version="1.1"
   id="レイヤー_1"
   x="0px"
   y="0px"
   viewBox="0 0 1083.6 1080"
   xml:space="preserve"
   sodipodi:docname="icon2.svg"
   width="1083.6"
   height="1080"
   inkscape:version="0.92.2 2405546, 2018-03-11"><metadata
   id="metadata339"><rdf:RDF><cc:Work
       rdf:about=""><dc:format>image/svg+xml</dc:format><dc:type
         rdf:resource="http://purl.org/dc/dcmitype/StillImage" /><dc:title></dc:title></cc:Work></rdf:RDF></metadata><defs
   id="defs337" /><sodipodi:namedview
   pagecolor="#ffffff"
   bordercolor="#666666"
   borderopacity="1"
   objecttolerance="10"
   gridtolerance="10"
   guidetolerance="10"
   inkscape:pageopacity="0"
   inkscape:pageshadow="2"
   inkscape:window-width="1366"
   inkscape:window-height="742"
   id="namedview335"
   showgrid="false"
   inkscape:snap-object-midpoints="false"
   inkscape:snap-center="false"
   inkscape:snap-bbox="true"
   inkscape:zoom="0.42438272"
   inkscape:cx="349.25517"
   inkscape:cy="620.96019"
   inkscape:window-x="0"
   inkscape:window-y="0"
   inkscape:window-maximized="1"
   inkscape:current-layer="レイヤー_1" />
<style
   type="text/css"
   id="style2">
	.st0{fill:#FFCF57;}
	.st1{opacity:0.7;}
	.st2{fill:#FF872E;}
	.st3{fill:#FF3300;}
	.st4{fill:#FFFFFF;}
	.st5{fill:#EFD8BB;}
	.st6{fill:#FFB8B8;}
	.st7{fill:#753E0C;}
	.st8{fill:#CC6600;}
	.st9{fill:#FFDCDC;}
</style>
<rect
   x="-1083.6"
   y="0"
   class="st0"
   width="1083.6"
   height="1080"
   id="rect4"
   style="fill:#ffcf57;stroke-width:1.66944218"
   transform="scale(-1,1)" />
<g
   class="st1"
   id="g14"
   style="opacity:0.7"
   transform="matrix(1.6722222,0,0,1.6666667,-361.2,-360.00003)">
	<polygon
   class="st2"
   points="540.6,540.7 216,268.4 216,422.6 540.5,540.7 "
   id="polygon6"
   style="fill:#ff872e" />
	<polygon
   class="st2"
   points="540.5,540.7 216,540.7 216,658.9 "
   id="polygon8"
   style="fill:#ff872e" />
	<polygon
   class="st2"
   points="540.6,540.7 728,216 597.8,216 540.6,540.7 540.6,540.7 540.6,540.7 540.5,540.7 216,813.1 216,864 353.9,864 540.6,540.7 540.6,540.7 483.6,864 597.6,864 540.6,540.7 540.6,540.7 727.2,864 864,864 864,812.1 540.6,540.7 864,658.4 864,540.7 540.7,540.7 540.6,540.7 864,423 864,269.3 540.6,540.7 "
   id="polygon10"
   style="fill:#ff872e" />
	<polygon
   class="st2"
   points="353.1,216 540.6,540.7 483.3,216 "
   id="polygon12"
   style="fill:#ff872e" />
</g>
<rect
   x="540.40002"
   y="539.5"
   class="st3"
   width="0"
   height="0"
   id="rect16"
   style="fill:#ff3300" />
<polygon
   class="st3"
   points=""
   id="polygon18"
   style="fill:#ff3300" />
<rect
   x="-240.88008"
   y="724.59338"
   transform="rotate(-63.434949)"
   class="st3"
   width="0"
   height="0"
   id="rect20"
   style="fill:#ff3300;stroke-width:0.9999696" />
<polygon
   class="st3"
   points=""
   id="polygon22"
   style="fill:#ff3300" />
<rect
   x="540.40002"
   y="539.5"
   class="st3"
   width="0"
   height="0"
   id="rect24"
   style="fill:#ff3300" />
<polygon
   class="st3"
   points=""
   id="polygon26"
   style="fill:#ff3300" />
<polygon
   class="st3"
   points=""
   id="polygon28"
   style="fill:#ff3300" />
<rect
   x="540.40002"
   y="539.5"
   class="st3"
   width="0"
   height="0"
   id="rect30"
   style="fill:#ff3300" />
<polygon
   class="st3"
   points=""
   id="polygon32"
   style="fill:#ff3300" />
<polygon
   class="st3"
   points=""
   id="polygon34"
   style="fill:#ff3300" />
<polygon
   class="st3"
   points=""
   id="polygon36"
   style="fill:#ff3300" />
<rect
   x="0.62947673"
   y="763.59229"
   transform="rotate(-45)"
   class="st3"
   width="0"
   height="0"
   id="rect38"
   style="fill:#ff3300;stroke-width:0.9999904" />
<rect
   x="0.6291939"
   y="763.58606"
   transform="rotate(-45)"
   class="st3"
   width="0"
   height="0"
   id="rect40"
   style="fill:#ff3300;stroke-width:0.9999904" />
<rect
   x="540.40002"
   y="539.5"
   class="st3"
   width="0"
   height="0"
   id="rect42"
   style="fill:#ff3300" />
<rect
   x="540.40002"
   y="539.5"
   class="st3"
   width="0"
   height="0"
   id="rect44"
   style="fill:#ff3300" />
<rect
   x="540.40002"
   y="539.5"
   class="st3"
   width="0"
   height="0"
   id="rect46"
   style="fill:#ff3300" />
<rect
   x="540.40002"
   y="539.5"
   class="st3"
   width="0"
   height="0"
   id="rect48"
   style="fill:#ff3300" />
<rect
   x="540.40002"
   y="539.5"
   class="st3"
   width="0"
   height="0"
   id="rect50"
   style="fill:#ff3300" />
<rect
   x="540.40002"
   y="539.5"
   class="st3"
   width="0"
   height="0"
   id="rect52"
   style="fill:#ff3300" />
<rect
   x="540.40002"
   y="539.5"
   class="st3"
   width="0"
   height="0"
   id="rect54"
   style="fill:#ff3300" />
<polygon
   class="st3"
   points=""
   id="polygon56"
   style="fill:#ff3300" />
<rect
   x="540.40002"
   y="539.5"
   class="st3"
   width="0"
   height="0"
   id="rect58"
   style="fill:#ff3300" />

<rect
   x="540.40002"
   y="539.5"
   class="st3"
   width="0"
   height="0"
   id="rect62"
   style="fill:#ff3300" />
<polygon
   class="st3"
   points=""
   id="polygon64"
   style="fill:#ff3300" />

<polygon
   class="st3"
   points=""
   id="polygon68"
   style="fill:#ff3300" />
<rect
   x="540.40002"
   y="539.5"
   class="st3"
   width="0"
   height="0"
   id="rect70"
   style="fill:#ff3300" />
<rect
   x="540.40002"
   y="539.5"
   class="st3"
   width="0"
   height="0"
   id="rect72"
   style="fill:#ff3300" />
<polygon
   class="st3"
   points=""
   id="polygon74"
   style="fill:#ff3300" />
<polygon
   class="st3"
   points=""
   id="polygon76"
   style="fill:#ff3300" />
<polygon
   class="st3"
   points=""
   id="polygon78"
   style="fill:#ff3300" />
<polygon
   class="st3"
   points=""
   id="polygon80"
   style="fill:#ff3300" />

<polygon
   class="st3"
   points=""
   id="polygon84"
   style="fill:#ff3300" />
<rect
   x="540.40002"
   y="539.5"
   class="st3"
   width="0"
   height="0"
   id="rect86"
   style="fill:#ff3300" />
<polygon
   class="st3"
   points=""
   id="polygon88"
   style="fill:#ff3300" />



<polygon
   class="st3"
   points=""
   id="polygon96"
   style="fill:#ff3300" />


<rect
   x="540.40002"
   y="539.5"
   class="st3"
   width="0"
   height="0"
   id="rect102"
   style="fill:#ff3300" />
<polygon
   class="st3"
   points=""
   id="polygon104"
   style="fill:#ff3300" />
<polygon
   class="st3"
   points=""
   id="polygon106"
   style="fill:#ff3300" />
<rect
   x="540.40002"
   y="539.5"
   class="st3"
   width="0"
   height="0"
   id="rect108"
   style="fill:#ff3300" />
<polygon
   class="st3"
   points=""
   id="polygon110"
   style="fill:#ff3300" />
<polygon
   class="st3"
   points=""
   id="polygon112"
   style="fill:#ff3300" />
<polygon
   class="st3"
   points=""
   id="polygon114"
   style="fill:#ff3300" />
<polygon
   class="st3"
   points=""
   id="polygon116"
   style="fill:#ff3300" />
<polygon
   class="st3"
   points=""
   id="polygon118"
   style="fill:#ff3300" />
<polygon
   class="st3"
   points=""
   id="polygon120"
   style="fill:#ff3300" />
<polygon
   class="st3"
   points=""
   id="polygon122"
   style="fill:#ff3300" />
<polygon
   class="st3"
   points=""
   id="polygon124"
   style="fill:#ff3300" />
<polygon
   class="st3"
   points=""
   id="polygon126"
   style="fill:#ff3300" />
<polygon
   class="st3"
   points=""
   id="polygon128"
   style="fill:#ff3300" />
<polygon
   class="st3"
   points=""
   id="polygon130"
   style="fill:#ff3300" />
<polygon
   class="st3"
   points=""
   id="polygon132"
   style="fill:#ff3300" />
<rect
   x="540.40002"
   y="539.5"
   class="st3"
   width="0"
   height="0"
   id="rect134"
   style="fill:#ff3300" />
<polygon
   class="st3"
   points=""
   id="polygon136"
   style="fill:#ff3300" />
<polygon
   class="st3"
   points=""
   id="polygon138"
   style="fill:#ff3300" />
<polygon
   class="st3"
   points=""
   id="polygon140"
   style="fill:#ff3300" />
<polygon
   class="st3"
   points=""
   id="polygon142"
   style="fill:#ff3300" />
<polygon
   class="st3"
   points=""
   id="polygon144"
   style="fill:#ff3300" />
<polygon
   class="st3"
   points=""
   id="polygon146"
   style="fill:#ff3300" />
<rect
   x="540.40002"
   y="539.5"
   class="st3"
   width="0"
   height="0"
   id="rect148"
   style="fill:#ff3300" />
<rect
   x="540.40002"
   y="539.5"
   class="st3"
   width="0"
   height="0"
   id="rect150"
   style="fill:#ff3300" />
<polygon
   class="st3"
   points=""
   id="polygon152"
   style="fill:#ff3300" />

<polygon
   class="st3"
   points=""
   id="polygon156"
   style="fill:#ff3300" />
<polygon
   class="st3"
   points=""
   id="polygon158"
   style="fill:#ff3300" />


<polygon
   class="st3"
   points=""
   id="polygon164"
   style="fill:#ff3300" />
<polygon
   class="st3"
   points=""
   id="polygon166"
   style="fill:#ff3300" />
<rect
   x="540.40002"
   y="539.5"
   class="st3"
   width="0"
   height="0"
   id="rect168"
   style="fill:#ff3300" />
<rect
   x="540.40002"
   y="539.5"
   class="st3"
   width="0"
   height="0"
   id="rect170"
   style="fill:#ff3300" />
<polygon
   class="st3"
   points=""
   id="polygon172"
   style="fill:#ff3300" />
<polygon
   class="st3"
   points=""
   id="polygon174"
   style="fill:#ff3300" />
<polygon
   class="st3"
   points=""
   id="polygon176"
   style="fill:#ff3300" />
<polygon
   class="st3"
   points=""
   id="polygon178"
   style="fill:#ff3300" />
<polygon
   class="st3"
   points=""
   id="polygon180"
   style="fill:#ff3300" />
<polygon
   class="st3"
   points=""
   id="polygon182"
   style="fill:#ff3300" />
<polygon
   class="st3"
   points=""
   id="polygon184"
   style="fill:#ff3300" />

<polygon
   class="st3"
   points=""
   id="polygon188"
   style="fill:#ff3300" />
<rect
   x="540.40002"
   y="539.5"
   class="st3"
   width="0"
   height="0"
   id="rect190"
   style="fill:#ff3300" />
<polygon
   class="st3"
   points=""
   id="polygon192"
   style="fill:#ff3300" />
<polygon
   class="st3"
   points=""
   id="polygon194"
   style="fill:#ff3300" />
<polygon
   class="st3"
   points=""
   id="polygon196"
   style="fill:#ff3300" />
<polygon
   class="st3"
   points=""
   id="polygon198"
   style="fill:#ff3300" />
<polygon
   class="st3"
   points=""
   id="polygon200"
   style="fill:#ff3300" />
<polygon
   class="st3"
   points=""
   id="polygon202"
   style="fill:#ff3300" />
<polygon
   class="st3"
   points=""
   id="polygon204"
   style="fill:#ff3300" />
<polygon
   class="st3"
   points=""
   id="polygon206"
   style="fill:#ff3300" />
<polygon
   class="st3"
   points=""
   id="polygon208"
   style="fill:#ff3300" />
<polygon
   class="st3"
   points=""
   id="polygon210"
   style="fill:#ff3300" />
<polygon
   class="st3"
   points=""
   id="polygon212"
   style="fill:#ff3300" />
<polygon
   class="st3"
   points=""
   id="polygon214"
   style="fill:#ff3300" />
<polygon
   class="st3"
   points=""
   id="polygon216"
   style="fill:#ff3300" />
<polygon
   class="st3"
   points=""
   id="polygon218"
   style="fill:#ff3300" />
<polygon
   class="st3"
   points=""
   id="polygon220"
   style="fill:#ff3300" />
<polygon
   class="st3"
   points=""
   id="polygon222"
   style="fill:#ff3300" />
<polygon
   class="st3"
   points=""
   id="polygon224"
   style="fill:#ff3300" />
<rect
   x="540.40002"
   y="539.5"
   class="st3"
   width="0"
   height="0"
   id="rect226"
   style="fill:#ff3300" />
<polygon
   class="st3"
   points=""
   id="polygon228"
   style="fill:#ff3300" />
<polygon
   class="st3"
   points=""
   id="polygon230"
   style="fill:#ff3300" />
<rect
   x="242.05707"
   y="724.19684"
   transform="rotate(-26.565051)"
   class="st3"
   width="0"
   height="0"
   id="rect232"
   style="fill:#ff3300;stroke-width:0.9999696" />
<rect
   x="540.40002"
   y="539.5"
   class="st3"
   width="0"
   height="0"
   id="rect234"
   style="fill:#ff3300" />
<polygon
   class="st3"
   points=""
   id="polygon236"
   style="fill:#ff3300" />
<polygon
   class="st3"
   points=""
   id="polygon238"
   style="fill:#ff3300" />
<polygon
   class="st3"
   points=""
   id="polygon240"
   style="fill:#ff3300" />
<polygon
   class="st3"
   points=""
   id="polygon242"
   style="fill:#ff3300" />
<polygon
   class="st3"
   points=""
   id="polygon244"
   style="fill:#ff3300" />
<polygon
   class="st3"
   points=""
   id="polygon246"
   style="fill:#ff3300" />
<polygon
   class="st3"
   points=""
   id="polygon248"
   style="fill:#ff3300" />
<polygon
   class="st3"
   points=""
   id="polygon250"
   style="fill:#ff3300" />

<polygon
   class="st3"
   points=""
   id="polygon254"
   style="fill:#ff3300" />
<polygon
   class="st3"
   points=""
   id="polygon256"
   style="fill:#ff3300" />

<polygon
   class="st3"
   points=""
   id="polygon260"
   style="fill:#ff3300" />
<polygon
   class="st3"
   points=""
   id="polygon262"
   style="fill:#ff3300" />
<polygon
   class="st3"
   points=""
   id="polygon264"
   style="fill:#ff3300" />
<polygon
   class="st3"
   points=""
   id="polygon266"
   style="fill:#ff3300" />

<polygon
   class="st3"
   points=""
   id="polygon270"
   style="fill:#ff3300" />
<polygon
   class="st3"
   points=""
   id="polygon272"
   style="fill:#ff3300" />
<rect
   x="540.40002"
   y="539.5"
   class="st3"
   width="0"
   height="0"
   id="rect274"
   style="fill:#ff3300" />
<polygon
   class="st3"
   points=""
   id="polygon276"
   style="fill:#ff3300" />
<polygon
   class="st3"
   points=""
   id="polygon278"
   style="fill:#ff3300" />
<rect
   x="540.40002"
   y="539.5"
   class="st3"
   width="0"
   height="0"
   id="rect280"
   style="fill:#ff3300" />
<rect
   x="540.40002"
   y="539.5"
   class="st3"
   width="0"
   height="0"
   id="rect282"
   style="fill:#ff3300" />
















<g
   id="g216"
   transform="matrix(1.5,0,0,1.5,-270.025,-269.71953)"><polygon
     style="fill:#ff3300"
     id="polygon60"
     points=""
     class="st3" /><polygon
     style="fill:#ff3300"
     id="polygon66"
     points=""
     class="st3" /><polygon
     style="fill:#ff3300"
     id="polygon82"
     points=""
     class="st3" /><polygon
     style="fill:#ff3300"
     id="polygon90"
     points=""
     class="st3" /><polygon
     style="fill:#ff3300"
     id="polygon92"
     points=""
     class="st3" /><polygon
     style="fill:#ff3300"
     id="polygon94"
     points=""
     class="st3" /><polygon
     style="fill:#ff3300"
     id="polygon98"
     points=""
     class="st3" /><polygon
     style="fill:#ff3300"
     id="polygon100"
     points=""
     class="st3" /><polygon
     style="fill:#ff3300"
     id="polygon154"
     points=""
     class="st3" /><polygon
     style="fill:#ff3300"
     id="polygon160"
     points=""
     class="st3" /><polygon
     style="fill:#ff3300"
     id="polygon162"
     points=""
     class="st3" /><polygon
     style="fill:#ff3300"
     id="polygon186"
     points="540.4,539.5 540.5,539.5 "
     class="st3" /><polygon
     style="fill:#ff3300"
     id="polygon252"
     points=""
     class="st3" /><polygon
     style="fill:#ff3300"
     id="polygon258"
     points=""
     class="st3" /><polygon
     style="fill:#ff3300"
     id="polygon268"
     points=""
     class="st3" /><polygon
     style="fill:#ff3300"
     id="polygon284"
     points=""
     class="st3" /><polygon
     style="fill:#ff3300"
     id="polygon286"
     points=""
     class="st3" /><circle
     style="fill:#ffffff"
     id="circle288"
     r="40.5"
     cy="346"
     cx="580.5"
     class="st4" /><path
     style="fill:#efd8bb"
     inkscape:connector-curvature="0"
     id="path290"
     d="m 775.8,502.5 c -1.6,-51.6 -6.6,-115.2 -16.2,-152 -1.5,-5.7 -3.8,-11.1 -6.2,-15.7 -4.9,-9.4 -15.5,-14.4 -25.9,-12.1 -2.5,0.6 -5.1,1.3 -7.6,2.3 -25,10 -63,34.5 -90,51.7 -2.7,1.7 -10.6,2.1 -13.7,1.2 -24.1,-6.5 -49.7,-10 -76.3,-10 -2.9,0 -5.9,0 -8.8,0.1 -2,0.1 -3.1,-2.3 -1.7,-3.8 6.9,-7.6 11,-18 10.5,-29.2 -1,-21 -18.3,-37.9 -39.3,-38.5 -22.9,-0.7 -41.7,17.7 -41.7,40.5 0,14.1 7.2,26.5 18.1,33.7 1.7,1.1 1.2,3.6 -0.8,4.1 -4.2,0.9 -8.4,2 -12.5,3.1 -3.1,0.8 -11.1,0.5 -13.8,-1.2 -27,-17.1 -65,-41.7 -90,-51.7 -2.4,-1 -5,-1.7 -7.5,-2.3 -10.3,-2.3 -21,2.7 -25.9,12.1 -2.4,4.6 -4.7,10 -6.2,15.7 -9.5,36.7 -14.5,100.1 -16.1,151.7 -10.5,23.7 -16.3,49.4 -16.3,76.2 0,118.7 94.5,204.1 252,204.1 157.5,0 252.1,-85.5 252.1,-204.1 0,-26.8 -5.7,-52.3 -16.2,-75.9 z"
     class="st5" /><path
     style="fill:#ffffff"
     inkscape:connector-curvature="0"
     id="path292"
     d="m 756,503.5 c -1.5,-47.8 -3.2,-109.9 -12,-144 -1.4,-5.3 -3.5,-10.3 -5.7,-14.6 -4.5,-8.7 -14.4,-7.7 -24.1,-5.6 -2.3,0.5 -4.7,1.2 -7,2.1 -23.2,9.3 -58.5,22.3 -83.6,38.2 -2.5,1.6 -9.9,1.9 -12.8,1.2 -22.3,-6 -46.1,-9.3 -70.8,-9.3 -2.7,0 -5.5,0 -8.2,0.1 -1.9,0.1 -2.8,-2.1 -1.6,-3.5 6.5,-7.1 10.2,-16.6 9.7,-27.1 -0.9,-19.4 -17,-35.1 -36.4,-35.6 -21.3,-0.6 -38.7,16.4 -38.7,37.5 0,13 6.7,24.5 16.8,31.2 1.5,1 1.1,3.4 -0.7,3.8 -3.9,0.9 -7.8,1.8 -11.6,2.8 -2.9,0.8 -10.3,0.5 -12.9,-1.1 -25.1,-15.8 -60.4,-29 -83.6,-38.2 -2.3,-0.9 -4.6,-1.6 -6.9,-2.1 -9.6,-2.2 -19.5,-3.2 -24,5.5 -2.2,4.3 -4.4,9.3 -5.7,14.6 -8.8,34 -10.7,96.3 -12.2,144 -9.8,21.9 -18,47.1 -18,72 0,109.9 87.8,179 234,179 146.2,0 234,-69.1 234,-179 0,-24.7 -8.3,-50.1 -18,-71.9 z"
     class="st4" /><g
     id="g300">
	<polygon
   style="fill:#ffb8b8"
   id="polygon294"
   points="501.2,601.2 541.2,674.5 578.8,601.2 "
   class="st6" />
	<path
   style="fill:#753e0c"
   inkscape:connector-curvature="0"
   id="path296"
   d="m 541.2,684.5 c -3.5,0 -6.8,-1.8 -8.6,-4.9 l -58.2,-96.9 c -2.8,-4.7 -1.3,-10.9 3.4,-13.7 4.7,-2.8 10.9,-1.3 13.7,3.4 l 49.6,82.6 49.6,-82.6 c 2.8,-4.7 9,-6.3 13.7,-3.4 4.7,2.8 6.3,9 3.4,13.7 l -58.2,96.9 c -1.6,3 -4.9,4.9 -8.4,4.9 z"
   class="st7" />
	<path
   style="fill:#753e0c"
   inkscape:connector-curvature="0"
   id="path298"
   d="m 585,602.6 h -90 c -5.5,0 -10,-4.5 -10,-10 0,-5.5 4.5,-10 10,-10 h 90 c 5.5,0 10,4.5 10,10 0,5.5 -4.5,10 -10,10 z"
   class="st7" />
</g><path
     style="fill:#753e0c"
     inkscape:connector-curvature="0"
     id="path302"
     d="m 395,576.5 c -3.1,0 -6.2,-1.5 -8.2,-4.2 -3.2,-4.5 -2.1,-10.7 2.4,-13.9 l 46,-32.7 c 4.5,-3.2 10.7,-2.1 13.9,2.4 3.2,4.5 2.1,10.7 -2.4,13.9 l -46,32.7 c -1.7,1.2 -3.7,1.8 -5.7,1.8 z"
     class="st7" /><path
     style="fill:#753e0c"
     inkscape:connector-curvature="0"
     id="path304"
     d="m 685,576.5 c -2,0 -4,-0.6 -5.8,-1.8 l -46,-32.7 c -4.5,-3.2 -5.6,-9.4 -2.4,-13.9 3.2,-4.5 9.4,-5.6 13.9,-2.4 l 46,32.7 c 4.5,3.2 5.6,9.4 2.4,13.9 -1.9,2.7 -5,4.2 -8.1,4.2 z"
     class="st7" /><g
     id="g316">
	<path
   style="fill:#cc6600"
   inkscape:connector-curvature="0"
   id="path306"
   d="m 540,514.5 c -5.5,0 -10,-4.5 -10,-10 v -64 c 0,-5.5 4.5,-10 10,-10 5.5,0 10,4.5 10,10 v 64 c 0,5.5 -4.5,10 -10,10 z"
   class="st8" />
	<path
   style="fill:#cc6600"
   inkscape:connector-curvature="0"
   id="path308"
   d="m 576,450.5 h -72 c -5.5,0 -10,-4.5 -10,-10 0,-5.5 4.5,-10 10,-10 h 72 c 5.5,0 10,4.5 10,10 0,5.5 -4.5,10 -10,10 z"
   class="st8" />
	<path
   style="fill:#cc6600"
   inkscape:connector-curvature="0"
   id="path310"
   d="m 576,486.5 h -72 c -5.5,0 -10,-4.5 -10,-10 0,-5.5 4.5,-10 10,-10 h 72 c 5.5,0 10,4.5 10,10 0,5.5 -4.5,10 -10,10 z"
   class="st8" />
	<path
   style="fill:#cc6600"
   inkscape:connector-curvature="0"
   id="path312"
   d="m 531,450.5 c -3,0 -6,-1.4 -8,-4 l -27,-36 c -3.3,-4.4 -2.4,-10.7 2,-14 4.4,-3.3 10.7,-2.4 14,2 l 27,36 c 3.3,4.4 2.4,10.7 -2,14 -1.8,1.3 -3.9,2 -6,2 z"
   class="st8" />
	<path
   style="fill:#cc6600"
   inkscape:connector-curvature="0"
   id="path314"
   d="m 549,450.5 c -2.1,0 -4.2,-0.7 -6,-2 -4.4,-3.3 -5.3,-9.6 -2,-14 l 27,-36 c 3.3,-4.4 9.6,-5.3 14,-2 4.4,3.3 5.3,9.6 2,14 l -27,36 c -2,2.6 -5,4 -8,4 z"
   class="st8" />
</g><path
     style="fill:#efd8bb"
     inkscape:connector-curvature="0"
     id="path318"
     d="m 472.5,386.7 c 12,-4.2 19.2,-6.2 32.5,-7.8 13.3,-1.6 18.2,-1 35,-1 8.2,0 -5.2,-36.8 -10.2,-46 1,12.5 -7.5,28.5 -26.7,31.5 -19.1,3 -30.7,-10.3 -34.2,-22.2 -0.1,8.6 3.6,45.5 3.6,45.5 z"
     class="st5" /><path
     style="fill:#efd8bb"
     inkscape:connector-curvature="0"
     id="path320"
     d="m 607.4,386.7 c -12,-4.2 -19.2,-6.2 -32.5,-7.8 -13.3,-1.6 -18.2,-1 -35,-1 -8.2,0 5.2,-36.8 10.2,-46 -1,12.5 8.1,22.8 27.3,25 18.7,2.2 30,-3.8 33.5,-15.7 0.2,8.6 -3.5,45.5 -3.5,45.5 z"
     class="st5" /><path
     style="fill:#753e0c"
     inkscape:connector-curvature="0"
     id="path322"
     d="m 601,381.9 c -3.4,0 -6.8,-1.8 -8.6,-4.9 -2.8,-4.8 -1.2,-10.9 3.6,-13.7 9.3,-5.5 15.1,-15.6 15.1,-26.3 0,-16.8 -13.7,-30.5 -30.5,-30.5 -16.8,0 -30.6,13.6 -30.6,30.5 0,8.6 3.7,16.9 10.1,22.7 4.1,3.7 4.4,10 0.7,14.1 -3.7,4.1 -10,4.4 -14.1,0.7 C 536.1,364.9 530,351.3 530,337 c 0,-27.8 22.7,-50.5 50.5,-50.5 27.8,0 50.5,22.6 50.5,50.5 0,17.8 -9.6,34.5 -25,43.6 -1.6,0.9 -3.3,1.3 -5,1.3 z"
     class="st7" /><path
     style="fill:#753e0c"
     inkscape:connector-curvature="0"
     id="path324"
     d="m 432,409.3 c -3,0 -6,-1.4 -8,-4 -3.3,-4.4 -2.4,-10.7 2,-14 l 0.7,-0.5 c 11.4,-8.5 26.9,-20.2 52.1,-27 5.3,-1.5 10.8,1.7 12.3,7 1.5,5.3 -1.7,10.8 -7,12.3 -21.5,5.8 -34.7,15.8 -45.3,23.7 l -0.7,0.5 c -1.9,1.3 -4,2 -6.1,2 z"
     class="st7" /><path
     style="fill:#753e0c"
     inkscape:connector-curvature="0"
     id="path326"
     d="m 648,409.3 c -2.1,0 -4.2,-0.7 -6,-2 -18.3,-13.7 -46.5,-29.5 -102,-29.5 -5.5,0 -10,-4.5 -10,-10 0,-5.5 4.5,-10 10,-10 62.1,0 94.8,19.1 114,33.5 4.4,3.3 5.3,9.6 2,14 -2,2.6 -5,4 -8,4 z"
     class="st7" /><g
     id="g173"><path
       class="st7"
       d="m 540,792.5 c -78.4,0 -144.6,-20.7 -191.5,-59.9 -22.8,-19 -40.4,-41.9 -52.4,-68.1 -12,-26.3 -18.1,-55.2 -18.1,-86.1 0,-27 5.5,-53.4 16.4,-78.5 0.9,-26.3 4.4,-105.6 16.4,-151.9 1.5,-5.7 3.8,-11.7 7,-17.8 7,-13.5 22.2,-20.6 37,-17.3 3.2,0.7 6.2,1.6 9,2.7 24.1,9.6 58.2,31.3 85.7,48.7 l 5.5,3.5 c 1.1,0.3 3.3,0.5 5,0.4 -7,-8.8 -10.9,-19.8 -10.9,-31.3 0,-13.8 5.4,-26.6 15.3,-36.2 9.9,-9.6 22.9,-14.7 36.7,-14.3 26.2,0.8 47.7,21.8 49,48 0.4,8.2 -1.2,16.2 -4.5,23.4 25,0.4 49.6,3.9 73.3,10.3 1.4,0.3 4.9,0.1 6.3,-0.3 l 4.4,-2.8 c 27.8,-17.7 62.3,-39.6 86.7,-49.4 2.8,-1.1 5.8,-2 9.1,-2.8 14.8,-3.3 30,3.8 37,17.3 3.2,6.1 5.5,12.1 7,17.8 12,46.4 15.5,125.9 16.4,152.3 10.8,25 16.3,51.3 16.3,78.2 0,30.9 -6.1,59.9 -18.1,86.1 -12,26.2 -29.6,49.1 -52.4,68.1 -47,39.2 -113.2,59.9 -191.6,59.9 z M 347.4,332.1 c -4.9,0 -9.5,2.7 -11.9,7.3 -2.5,4.8 -4.3,9.4 -5.4,13.6 -7.9,30.7 -13.9,86.6 -15.8,149.5 0,1.3 -0.3,2.6 -0.9,3.8 -10.3,23.1 -15.5,47.3 -15.5,72.2 0,56.2 21.9,104.2 63.3,138.9 43.2,36.1 105,55.2 178.7,55.2 73.7,0 135.4,-19.1 178.7,-55.2 41.4,-34.6 63.3,-82.6 63.3,-138.9 0,-24.7 -5.2,-48.9 -15.3,-71.9 -0.5,-1.2 -0.8,-2.5 -0.9,-3.7 -2,-63 -7.9,-119 -15.8,-149.8 -1.1,-4.3 -2.9,-8.8 -5.4,-13.6 -2.8,-5.4 -8.9,-8.3 -14.8,-6.9 -2.2,0.5 -4.3,1.1 -6,1.8 -22.7,9.1 -57.8,31.4 -83.4,47.7 l -4.9,3.1 c -6.1,3.9 -17.2,3.7 -21.7,2.5 C 590,381.3 565.2,378 540,378 c -2.8,0 -5.7,0 -8.5,0.1 -4.9,0.1 -9.4,-2.6 -11.5,-7.1 -2.1,-4.5 -1.2,-9.7 2.1,-13.4 5.5,-6 8.3,-13.8 7.9,-22 -0.8,-15.8 -13.7,-28.5 -29.6,-29 -8.3,-0.2 -16.2,2.8 -22.2,8.6 -6,5.8 -9.2,13.6 -9.2,21.9 0,10.2 5.1,19.7 13.6,25.4 4.1,2.7 6.2,7.6 5.3,12.4 -0.9,4.8 -4.6,8.6 -9.4,9.7 -4.1,0.9 -8.1,1.9 -12,3 -4.4,1.2 -15.8,1.4 -21.8,-2.4 l -6,-3.8 c -25.3,-16.1 -60,-38.1 -82.3,-47 -1.8,-0.7 -3.8,-1.3 -6,-1.8 -1,-0.4 -2,-0.5 -3,-0.5 z m 107.2,35.7"
       id="path328"
       inkscape:connector-curvature="0"
       style="fill:#753e0c" /></g><ellipse
     style="fill:#ffdcdc"
     id="ellipse330"
     ry="22.5"
     rx="36"
     cy="616"
     cx="414"
     class="st9" /><ellipse
     style="fill:#ffdcdc"
     id="ellipse332"
     ry="22.5"
     rx="36"
     cy="616"
     cx="666"
     class="st9" /></g>
</svg>